# xmcd
#
# Track frame offsets: 
#        150
#        14817
#        33090
#        45004
#        63478
#        79179
#        96997
#        111461
#        131168
#        147861
#
# Disc length: 2199 seconds
#
# Revision: 2
# Processed by: cddbd v1.5.2PL0 Copyright (c) Steve Scherf et al.
# Submitted via: ExactAudioCopy v0.99pb5
#
DISCID=8708950a
DTITLE=Angie Stone - Dream
DYEAR=2015
DGENRE=Soul
TTITLE0=Dollar Bill
TTITLE1=Begin Again featuring Dave Hollister
TTITLE2=Clothes Don't Make A Man
TTITLE3=Magnet
TTITLE4=Dream
TTITLE5=2 Bad Habits
TTITLE6=Quits
TTITLE7=Think It Over
TTITLE8=Forget About Me
TTITLE9=Didn't Break Me
EXTD=
EXTT0=
EXTT1=
EXTT2=
EXTT3=
EXTT4=
EXTT5=
EXTT6=
EXTT7=
EXTT8=
EXTT9=
PLAYORDER=
